<?xml version="1.0" encoding="UTF-8"?>
<svg width="22px" height="18px" viewBox="0 0 22 18" version="1.1" xmlns="http://www.w3.org/2000/svg" xmlns:xlink="http://www.w3.org/1999/xlink">
    <title>目录</title>
    <g id="页面-1" stroke="none" stroke-width="1" fill="none" fill-rule="evenodd">
        <g id="首页1-1" transform="translate(-24.000000, -35.000000)" fill="#808080" fill-rule="nonzero">
            <g id="目录" transform="translate(35.000000, 44.000000) scale(-1, 1) translate(-35.000000, -44.000000) translate(24.000000, 35.000000)">
                <path d="M1.62250317,0.27500352 L20.5287752,0.27500352 C21.1337759,0.27500352 21.5875264,0.728754048 21.5875264,1.48500493 C21.5875264,2.09000563 21.1337759,2.69500634 20.377525,2.69500634 L1.62250317,2.69500634 C0.866252288,2.54375616 0.41250176,2.09000563 0.41250176,1.48500493 C0.41250176,0.728754048 0.866252288,0.27500352 1.62250317,0.27500352 Z M6.82550922,7.83751232 L20.5287752,7.83751232 C21.1337759,7.83751232 21.5875264,8.29126285 21.5875264,9.04751373 C21.5875264,9.65251443 21.1337759,10.2575151 20.377525,10.2575151 L6.82550922,10.2575151 C6.06925834,10.106265 5.61550781,9.65251443 5.61550781,9.04751373 C5.61550781,8.29126285 6.06925834,7.83751232 6.82550922,7.83751232 Z M1.62250317,15.4000211 L20.5287752,15.4000211 C21.1337759,15.4000211 21.7387766,15.8537716 21.7387766,16.6100225 C21.7387766,17.3662734 21.285026,17.8200239 20.5287752,17.8200239 L1.62250317,17.8200239 C1.01750246,17.8200239 0.41250176,17.3662734 0.41250176,16.6100225 C0.41250176,15.8537716 0.866252288,15.4000211 1.62250317,15.4000211 Z" id="形状"></path>
            </g>
        </g>
    </g>
</svg>