<?xml version="1.0" encoding="UTF-8"?>
<svg width="40px" height="40px" viewBox="0 0 40 40" version="1.1" xmlns="http://www.w3.org/2000/svg" xmlns:xlink="http://www.w3.org/1999/xlink">
    <title>雷达</title>
    <g id="页面-1" stroke="none" stroke-width="1" fill="none" fill-rule="evenodd">
        <g id="首页1-1" transform="translate(-15.000000, -82.000000)" fill="#1A97FF" fill-rule="nonzero">
            <g id="雷达" transform="translate(15.000000, 82.000000)">
                <path d="M20.0000233,40.0000465 C12.4581786,39.8982285 7.56727443,38.4327713 4.60910693,35.3927756 C1.56910339,32.4382252 0.105468873,27.5472977 0.00183593964,20.0018592 C0.105472388,12.4582176 1.57092761,7.56731349 4.60910693,4.61094287 C7.56547365,1.57093933 12.4563817,0.107304812 20.0000233,0.00367187927 C27.5455008,0.107308328 32.4364049,1.57276355 35.3909396,4.61094287 C38.4309432,7.5691299 39.8964136,12.4600536 40.0000465,20.0018592 C39.8964101,27.5455008 38.4309549,32.4364049 35.3909396,35.3927756 C32.4345729,38.4327791 27.5436649,39.8964136 20.0000233,40.0000465 Z M12.9909136,19.8600231 L12.9909135,19.8600231 C12.7392015,19.8627289 12.4977333,19.9600951 12.3145494,20.1327508 L7.95091155,24.0727554 L7.95091159,24.0727553 C7.42787583,24.5994552 7.32487961,25.4122413 7.70000231,26.0527576 L7.70000234,26.0527577 C7.88514983,26.3969678 8.23854203,26.6175786 8.62909327,26.6327584 L8.62909332,26.6327584 C8.88108424,26.6287539 9.12267202,26.5316012 9.3072777,26.3600307 L13.0363719,22.9963901 L17.2982128,26.4054839 L17.2982128,26.4054839 C17.4736103,26.5512071 17.6938305,26.6321041 17.9218503,26.6345752 L17.9218503,26.6345752 C18.0329207,26.6345752 18.1431095,26.6148628 18.2473053,26.5763931 L18.2473053,26.5763931 C18.5927358,26.4380715 18.8590834,26.1537442 18.9745796,25.8000289 L22.1363997,17.1672845 L24.3418554,23.5891279 L24.3418553,23.5891278 C24.4670523,24.0358705 24.8389028,24.3701834 25.2964033,24.4473124 L31.2800431,25.1200397 L31.3745885,25.1200397 L31.3745886,25.1200397 C32.0373159,25.059274 32.5413399,24.4981953 32.5309532,23.8327648 L32.5309532,23.8327647 C32.6390721,23.1267366 32.1862571,22.4562202 31.490952,22.2927629 L26.1927818,21.6982154 L23.2291416,13.0745725 L23.2291416,13.0745727 C23.0976833,12.5953065 22.6792269,12.2503569 22.1836873,12.2127552 L22.1473236,12.2127552 L22.1473236,12.2127552 C21.6638114,12.2445736 21.2532484,12.5785674 21.1236857,13.0454828 L17.4309549,23.1291273 L13.6273137,20.0873074 L13.6273137,20.0873074 C13.4478385,19.9402717 13.2229656,19.8599595 12.9909497,19.8600345 L12.9909136,19.8600231 Z" id="形状"></path>
            </g>
        </g>
    </g>
</svg>