<?xml version="1.0" encoding="UTF-8"?>
<svg width="63px" height="28px" viewBox="0 0 63 28" version="1.1" xmlns="http://www.w3.org/2000/svg" xmlns:xlink="http://www.w3.org/1999/xlink">
    <title>编组 9</title>
    <g id="页面-1" stroke="none" stroke-width="1" fill="none" fill-rule="evenodd">
        <g id="主导航展开" transform="translate(-116.000000, -32.000000)" fill="#000000" fill-rule="nonzero">
            <g id="编组-6" transform="translate(67.000000, 25.000000)">
                <g id="编组-9" transform="translate(49.484375, 7.117188)">
                    <path d="M1.77148438,8.8828125 L1.77148438,1.078125 L5.90820312,8.8828125 L7.34375,8.8828125 L7.34375,0.158203125 L6.25976562,0.158203125 L6.25976562,7.28320312 L2.48632812,0.158203125 L0.6875,0.158203125 L0.6875,8.8828125 L1.77148438,8.8828125 Z M15.4121094,8.8828125 L15.4121094,7.8515625 L10.8242188,7.8515625 L10.8242188,4.61132812 L15.4121094,4.61132812 L15.4121094,3.58007812 L10.8242188,3.58007812 L10.8242188,1.18945312 L15.4121094,1.18945312 L15.4121094,0.158203125 L9.6640625,0.158203125 L9.6640625,8.8828125 L15.4121094,8.8828125 Z M20.2050781,8.8828125 L21.9980469,1.640625 L23.8320312,8.8828125 L25.1386719,8.8828125 L27.40625,0.158203125 L26.2695312,0.158203125 L24.4472656,7.48242188 L22.625,0.158203125 L21.4472656,0.158203125 L19.6425781,7.41210938 L17.8085938,0.158203125 L16.6191406,0.158203125 L18.9277344,8.8828125 L20.2050781,8.8828125 Z M31.9589844,9.04101562 C32.5449219,9.04101562 33.0458984,8.97070312 33.4619141,8.83007812 C33.8779297,8.68945312 34.2421875,8.49414062 34.5546875,8.24414062 C34.8398438,8.01367188 35.0615234,7.73242188 35.2197266,7.40039062 C35.3779297,7.06835938 35.4570312,6.73242188 35.4570312,6.39257812 C35.4570312,5.76757812 35.2929688,5.28125 34.9648438,4.93359375 C34.6367188,4.5859375 34.1484375,4.32617188 33.5,4.15429688 C33.1796875,4.07226562 32.7890625,3.9921875 32.328125,3.9140625 C31.8671875,3.8359375 31.5117188,3.76953125 31.2617188,3.71484375 C30.7890625,3.60546875 30.4589844,3.44726562 30.2714844,3.24023438 C30.0839844,3.03320312 29.9902344,2.74804687 29.9902344,2.38476562 C29.9902344,1.97851562 30.1787109,1.64648438 30.5556641,1.38867188 C30.9326172,1.13085938 31.4316406,1.00195312 32.0527344,1.00195312 C32.6191406,1.00195312 33.1728516,1.09472656 33.7138672,1.28027344 C34.2548828,1.46582031 34.6914062,1.69921875 35.0234375,1.98046875 L35.0234375,1.98046875 L35.1054688,1.98046875 L35.1054688,0.609375 C34.7109375,0.4375 34.2578125,0.29296875 33.7460938,0.17578125 C33.234375,0.05859375 32.671875,0 32.0585938,0 C31.109375,0 30.3261719,0.233398438 29.7089844,0.700195313 C29.0917969,1.16699219 28.7832031,1.765625 28.7832031,2.49609375 C28.7832031,3.1328125 28.9697266,3.64941406 29.3427734,4.04589844 C29.7158203,4.44238281 30.2890625,4.72265625 31.0625,4.88671875 C31.4453125,4.96484375 31.8076172,5.02929688 32.1494141,5.08007812 C32.4912109,5.13085938 32.8085938,5.1953125 33.1015625,5.2734375 C33.4882812,5.375 33.7763672,5.51757812 33.9658203,5.70117188 C34.1552734,5.88476562 34.25,6.16992188 34.25,6.55664062 C34.25,7.00585938 34.0498047,7.36523438 33.6494141,7.63476562 C33.2490234,7.90429688 32.6894531,8.0390625 31.9707031,8.0390625 C31.4628906,8.0390625 30.9199219,7.93945312 30.3417969,7.74023438 C29.7636719,7.54101562 29.2539062,7.2578125 28.8125,6.890625 L28.8125,6.890625 L28.7304688,6.890625 L28.7304688,8.34375 C29.25,8.57421875 29.7607422,8.74804688 30.2626953,8.86523438 C30.7646484,8.98242188 31.3300781,9.04101562 31.9589844,9.04101562 Z" id="NEWS"></path>
                    <path d="M2.984375,26.8828125 L2.984375,22.6171875 L4.3671875,22.6171875 L7.5390625,26.8828125 L11.203125,26.8828125 L7.3203125,21.8984375 C8.05989583,21.5390625 8.62890625,21.0885417 9.02734375,20.546875 C9.42578125,20.0052083 9.625,19.3046875 9.625,18.4453125 C9.625,17.8203125 9.49609375,17.3007812 9.23828125,16.8867188 C8.98046875,16.4726562 8.6328125,16.1354167 8.1953125,15.875 C7.76302083,15.6145833 7.29947917,15.4453125 6.8046875,15.3671875 C6.30989583,15.2890625 5.71875,15.25 5.03125,15.25 L5.03125,15.25 L0,15.25 L0,26.8828125 L2.984375,26.8828125 Z M3.90625,20.5234375 L2.984375,20.5234375 L2.984375,17.390625 L4.0703125,17.390625 C4.4296875,17.390625 4.74479167,17.3997396 5.015625,17.4179688 C5.28645833,17.4361979 5.5234375,17.4869792 5.7265625,17.5703125 C6.01822917,17.6901042 6.22395833,17.8541667 6.34375,18.0625 C6.46354167,18.2708333 6.5234375,18.5208333 6.5234375,18.8125 C6.5234375,19.140625 6.47526042,19.4023438 6.37890625,19.5976562 C6.28255208,19.7929688 6.13020833,19.9713542 5.921875,20.1328125 C5.703125,20.2994792 5.43229167,20.40625 5.109375,20.453125 C4.78645833,20.5 4.38541667,20.5234375 3.90625,20.5234375 L3.90625,20.5234375 Z M14.2421875,26.8828125 L15.046875,24.53125 L19.359375,24.53125 L20.1640625,26.8828125 L23.265625,26.8828125 L18.96875,15.25 L15.515625,15.25 L11.21875,26.8828125 L14.2421875,26.8828125 Z M18.6328125,22.3984375 L15.7734375,22.3984375 L17.203125,18.2265625 L18.6328125,22.3984375 Z M29.0390625,26.8828125 C29.9661458,26.8828125 30.7682292,26.8151042 31.4453125,26.6796875 C32.1223958,26.5442708 32.7447917,26.3046875 33.3125,25.9609375 C34.0677083,25.5026042 34.6927083,24.8450521 35.1875,23.9882812 C35.6822917,23.1315104 35.9296875,22.1614583 35.9296875,21.078125 C35.9296875,19.953125 35.6992188,18.9752604 35.2382812,18.1445312 C34.7773438,17.3138021 34.1458333,16.6536458 33.34375,16.1640625 C32.875,15.8723958 32.296875,15.6471354 31.609375,15.4882812 C30.921875,15.3294271 30.1041667,15.25 29.15625,15.25 L29.15625,15.25 L24.9375,15.25 L24.9375,26.8828125 L29.0390625,26.8828125 Z M28.6953125,24.703125 L27.9375,24.703125 L27.9375,17.421875 L28.6953125,17.421875 C29.3411458,17.421875 29.8242188,17.4492188 30.1445312,17.5039062 C30.4648438,17.5585938 30.7786458,17.6614583 31.0859375,17.8125 C31.6901042,18.1197917 32.1315104,18.5455729 32.4101562,19.0898438 C32.6888021,19.6341146 32.828125,20.2890625 32.828125,21.0546875 C32.828125,21.8255208 32.7005208,22.4726562 32.4453125,22.9960938 C32.1901042,23.5195312 31.7890625,23.9375 31.2421875,24.25 C30.9244792,24.421875 30.5989583,24.5403646 30.265625,24.6054688 C29.9322917,24.6705729 29.4088542,24.703125 28.6953125,24.703125 L28.6953125,24.703125 Z M39.9453125,26.8828125 L40.75,24.53125 L45.0625,24.53125 L45.8671875,26.8828125 L48.96875,26.8828125 L44.671875,15.25 L41.21875,15.25 L36.921875,26.8828125 L39.9453125,26.8828125 Z M44.3359375,22.3984375 L41.4765625,22.3984375 L42.90625,18.2265625 L44.3359375,22.3984375 Z M53.625,26.8828125 L53.625,22.6171875 L55.0078125,22.6171875 L58.1796875,26.8828125 L61.84375,26.8828125 L57.9609375,21.8984375 C58.7005208,21.5390625 59.2695312,21.0885417 59.6679688,20.546875 C60.0664062,20.0052083 60.265625,19.3046875 60.265625,18.4453125 C60.265625,17.8203125 60.1367188,17.3007812 59.8789062,16.8867188 C59.6210938,16.4726562 59.2734375,16.1354167 58.8359375,15.875 C58.4036458,15.6145833 57.9401042,15.4453125 57.4453125,15.3671875 C56.9505208,15.2890625 56.359375,15.25 55.671875,15.25 L55.671875,15.25 L50.640625,15.25 L50.640625,26.8828125 L53.625,26.8828125 Z M54.546875,20.5234375 L53.625,20.5234375 L53.625,17.390625 L54.7109375,17.390625 C55.0703125,17.390625 55.3854167,17.3997396 55.65625,17.4179688 C55.9270833,17.4361979 56.1640625,17.4869792 56.3671875,17.5703125 C56.6588542,17.6901042 56.8645833,17.8541667 56.984375,18.0625 C57.1041667,18.2708333 57.1640625,18.5208333 57.1640625,18.8125 C57.1640625,19.140625 57.1158854,19.4023438 57.0195312,19.5976562 C56.9231771,19.7929688 56.7708333,19.9713542 56.5625,20.1328125 C56.34375,20.2994792 56.0729167,20.40625 55.75,20.453125 C55.4270833,20.5 55.0260417,20.5234375 54.546875,20.5234375 L54.546875,20.5234375 Z" id="RADAR"></path>
                </g>
            </g>
        </g>
    </g>
</svg>