<?xml version="1.0" encoding="UTF-8"?>
<svg width="41px" height="41px" viewBox="0 0 41 41" version="1.1" xmlns="http://www.w3.org/2000/svg" xmlns:xlink="http://www.w3.org/1999/xlink">
    <title>编组 11</title>
    <g id="页面-1" stroke="none" stroke-width="1" fill="none" fill-rule="evenodd">
        <g id="facebook" transform="translate(-2168.000000, -40.000000)">
            <g id="编组-4备份-2" transform="translate(2165.000000, 40.000000)">
                <g id="编组-11" transform="translate(3.000000, 0.000000)">
                    <circle id="椭圆形" fill="#3977DD" cx="20.5" cy="20.5" r="20.5"></circle>
                    <path d="M21.6994508,10.1319569 C21.0150245,10.1319569 20.3686401,10.2097341 19.6081553,10.5206883 C18.0491941,11.1814339 17.2887597,12.658531 17.2887597,15.0295249 L17.2887597,17.3228189 L15.1214813,17.3228189 L15.1214813,21.1319955 L17.2887597,21.1319955 L17.2887597,32.1319569 L21.6994256,32.1319569 L21.6994256,21.1319955 L24.7032474,21.1319955 L25.1214813,17.3228189 L21.6993751,17.3228189 L21.6993751,15.6125705 C21.6993751,15.0684135 21.7373918,14.6797336 21.8894585,14.4853163 C22.0795419,14.135525 22.4598096,13.9800221 23.068152,13.9800221 L25.0833638,13.9800221 L25.0833638,10.1708455 L21.6992995,10.1708455 L21.6994508,10.1319569 Z" id="路径" fill="#FFFFFF" fill-rule="nonzero"></path>
                </g>
            </g>
        </g>
    </g>
</svg>