<?xml version="1.0" encoding="UTF-8"?>
<svg width="41px" height="41px" viewBox="0 0 41 41" version="1.1" xmlns="http://www.w3.org/2000/svg" xmlns:xlink="http://www.w3.org/1999/xlink">
    <title>编组 10</title>
    <g id="页面-1" stroke="none" stroke-width="1" fill="none" fill-rule="evenodd">
        <g id="热点" transform="translate(-2179.000000, -289.000000)">
            <g id="编组-10" transform="translate(2179.000000, 289.000000)">
                <circle id="椭圆形" fill="#FC7B5A" cx="20.5" cy="20.5" r="20.5"></circle>
                <g id="热点" transform="translate(13.000000, 7.000000)" fill="#FFFFFF" fill-rule="nonzero">
                    <path d="M15.0770103,9.14538252 C15.0350123,12.0128032 13.8441859,13.2326606 13.8441859,13.2326606 C13.7322196,6.84618596 7.28648851,0 7.28648851,0 C9.41621004,4.2405152 0,9.57169669 0,17.2177157 C0,22.0138754 6.04842852,25.5369928 9.07988431,24.9324215 C22.1812797,22.3205166 15.0770103,9.14538252 15.0770103,9.14538252 Z M8.49990737,23.0102505 C8.49990737,23.0102505 1.70942819,19.7422037 8.30920897,12.5000671 C8.30920897,12.5000671 11.5881003,15.7488549 10.9574754,18.7759695 C10.9574754,18.7759695 11.8821435,18.8718192 13.059312,17.2240333 C13.0592836,17.2240333 13.3341772,21.8223986 8.49990737,23.0102505 L8.49990737,23.0102505 Z" id="形状"></path>
                </g>
            </g>
        </g>
    </g>
</svg>