<?xml version="1.0" encoding="UTF-8"?>
<svg width="41px" height="41px" viewBox="0 0 41 41" version="1.1" xmlns="http://www.w3.org/2000/svg" xmlns:xlink="http://www.w3.org/1999/xlink">
    <title>编组 10</title>
    <g id="页面-1" stroke="none" stroke-width="1" fill="none" fill-rule="evenodd">
        <g id="新闻" transform="translate(-2179.000000, -289.000000)">
            <g id="编组-10" transform="translate(2179.000000, 289.000000)">
                <circle id="椭圆形" fill="#46CA82" cx="20.5" cy="20.5" r="20.5"></circle>
                <g id="地球" transform="translate(8.000000, 7.000000)" fill="#FFFFFF" fill-rule="nonzero">
                    <path d="M12.9000585,0.205265785 C5.84412925,0.205265785 0.0847269937,5.96466805 0.0847269937,13.0205973 C0.0847269937,20.0765266 5.79708973,25.8329889 12.9000585,25.8329889 C20.0030273,25.8329889 25.6683505,20.0735866 25.6683505,13.0176573 C25.6683505,5.96172808 19.9559878,0.205265785 12.9000585,0.205265785 Z M23.028257,9.75723003 C23.028257,9.7101905 23.0752965,9.7101905 23.125276,9.660211 C23.1723155,9.56319197 23.1723155,9.51615244 23.222295,9.46911291 C23.2693346,9.42207339 23.3663536,9.37209389 23.4133931,9.32505436 L23.4604326,9.27801483 C23.6515307,9.80720952 23.7955893,10.3334642 23.8926083,10.9096985 C23.7955893,10.956738 23.7485498,10.956738 23.6515307,10.956738 C23.5074722,10.956738 23.4104531,10.9096985 23.3163741,10.8126794 L23.028257,10.5245623 C22.9812175,10.4275433 22.9812175,10.2834847 23.028257,10.1894057 C23.028257,9.94832811 22.9782775,9.85130908 23.028257,9.75723003 L23.028257,9.75723003 Z M22.4990623,13.2116954 C22.5461018,13.1146764 22.6431208,13.0676368 22.6901604,12.9706178 C22.7871794,12.7795197 22.7871794,12.6825007 22.8812585,12.5384421 C23.025317,12.3943836 23.1693756,12.3473441 23.3134341,12.2032855 C23.4574927,12.0592269 23.4574927,11.9622079 23.5545117,11.7711098 C23.6515307,11.5800118 23.7955893,11.4359532 23.9396478,11.3389342 C24.1807254,12.8735988 24.0837064,14.4582429 23.6985703,15.945868 C23.5074722,15.848849 23.3134341,15.7547699 23.1693756,15.6107113 C22.928298,15.4196133 22.7371999,15.1785357 22.5461018,14.9374581 C22.3550037,14.6963805 22.4990623,14.4082634 22.4990623,14.1201463 C22.4990623,13.7879296 22.4020433,13.4027935 22.4990623,13.2116954 L22.4990623,13.2116954 Z M20.9643977,5.2914148 C20.532222,5.2914148 20.2441049,5.2914148 19.8619087,5.53249238 C19.7178502,5.62951141 19.6208311,5.72359046 19.4297331,5.82060949 C19.2856745,5.86764902 19.0945764,5.82060949 18.9505179,5.86764902 C18.3742836,6.0587471 18.4713027,7.30823458 17.7039704,7.11419652 C17.3688137,7.01717749 17.0806966,6.58500183 16.9366381,6.34686421 C16.7925795,6.10578663 16.5044624,5.91468855 16.6955605,5.57953191 L16.4074434,5.57953191 C16.5515019,5.2914148 16.9366381,5.33845432 16.9836776,5.19439577 C17.1747757,4.85923913 16.5044624,4.80925963 16.3604038,4.7622201 C16.5515019,4.52114252 16.6955605,4.85923913 16.8895985,4.80925963 C17.0836366,4.75928013 16.7925795,4.47410299 16.6485209,4.47410299 C16.6014814,4.47410299 15.8811886,4.66520107 16.3133643,4.28300491 L14.7786997,3.27459501 C14.6816807,3.65973115 15.4519529,3.85082924 15.74007,3.99488779 C15.6930305,4.13894635 15.4519529,4.38002393 15.3078944,4.28300491 C15.1167963,4.23596538 15.2108754,3.94784827 14.9727377,3.94784827 C14.7816397,4.38002393 15.3578739,4.23596538 15.4049134,4.52408249 C15.4519529,4.8121996 15.2138153,4.71518057 15.0697568,4.71518057 C15.0227172,4.71518057 14.8286792,4.52408249 14.8286792,4.66814104 C14.8286792,4.85923913 15.1638358,4.76516007 15.1638358,4.95625816 C14.7786997,4.95625816 14.5876016,4.8121996 14.252445,4.62110152 C13.9172883,4.43000343 13.7232503,4.43000343 13.2910746,4.43000343 C13.4351332,4.3829639 13.5791917,4.3329844 13.7232503,4.23890535 C13.8673088,4.14482629 13.9643278,4.04780726 14.0584069,3.90374871 C14.1054464,3.66267112 14.0584069,3.71265062 13.8173293,3.56859207 C13.5762517,3.42453351 13.3851537,3.18345593 13.1440761,3.1364164 C12.2797247,2.94531832 12.9029985,3.90374871 12.2326852,4.04780726 C12.0886267,4.04780726 11.8005095,4.00076773 11.7034905,4.09484679 C11.656451,4.14188632 11.6064715,4.3829639 11.559432,4.43000343 C11.4153734,4.57406199 11.2242753,4.62110152 11.0802168,4.71812054 C10.8391392,4.8621791 10.6480411,5.05327718 10.5039825,5.24731524 C10.1688259,5.92056849 11.2713148,6.11166657 11.7034905,6.30276466 C11.8945886,6.39978368 12.4708228,6.49386274 12.5678418,6.6379213 C12.7119004,6.82901938 12.4708228,7.02305744 12.7589399,7.16711599 C12.855959,7.21415552 13.0000175,7.21415552 13.1440761,7.12007646 C13.2881346,6.97601791 13.0970365,6.92897838 13.047057,6.78491982 C13.0000175,6.44976318 13.0940966,6.59382174 13.2381551,6.44976318 C13.5733118,6.2086856 13.4792327,6.2086856 13.3822137,5.77650993 C13.3351742,5.58541185 13.0940966,5.10325668 13.2851947,4.95919813 C13.5262722,4.76810004 14.052527,5.05621715 14.246565,5.05621715 C14.4376631,5.10325668 14.5817217,5.39137379 14.6787407,5.48839282 C14.7757597,5.58541185 14.8698388,5.7294704 15.0138973,5.7294704 C15.2049954,5.68243088 15.1579559,5.48839282 15.2549749,5.44135329 C15.5901315,5.20027571 15.6871506,5.53837232 15.8312091,5.82648943 C15.9282282,6.06756701 16.0722867,6.2586651 16.3104243,6.40272365 C16.4074434,6.49974268 16.8866586,6.78785979 16.839619,7.02599741 C16.7925795,7.17005596 16.3104243,7.36115405 16.1663658,7.41113355 C15.6371711,7.5551921 14.7257802,7.12301643 14.5817217,7.94032824 C14.7728197,7.84330921 15.349054,7.41113355 15.4931125,7.6051716 C15.5901315,7.70219063 15.446073,7.84624918 15.446073,7.94032824 C15.543092,8.22844535 15.7812296,8.13142632 16.0223072,8.0843868 C16.0223072,8.0843868 15.9752677,8.0843868 15.9752677,8.13142632 C16.3104243,7.94032824 16.2633848,7.98736777 16.4074434,7.74629019 C16.4544829,7.60223163 16.5044624,7.5052126 16.5985414,7.36115405 C16.839619,7.12007646 16.8866586,7.31411452 17.0307171,7.45817307 C17.0777566,7.5052126 17.4158532,8.0344073 17.3188342,7.98736777 C16.8866586,7.89034874 16.5015224,7.89034874 16.1663658,8.13142632 C15.9752677,8.27548488 15.7812296,8.41954344 15.543092,8.51656246 C15.4960525,8.51656246 15.0638768,8.56360199 15.1109164,8.51656246 C15.2079354,8.41954344 15.446073,8.32546438 15.543092,8.22844535 C15.2549749,8.13142632 15.0138973,8.37250391 14.8227992,8.51656246 C14.5817217,8.61358149 14.5346821,8.8517191 14.343584,8.99577766 C14.246565,9.09279669 14.1025065,9.09279669 14.0084274,9.18687574 C13.9114084,9.28389477 13.9114084,9.42795333 13.8173293,9.52203238 C13.7702898,9.56907191 13.6262312,9.56907191 13.5762517,9.66609094 C13.4792327,9.81014949 13.6232913,9.90716852 13.6232913,10.0012476 C13.5762517,10.1923457 13.2381551,10.3364042 13.0940966,10.4334232 L13.1411361,10.3863837 C12.9970775,10.4834027 12.853019,10.6274613 12.756,10.7715199 C12.8030395,10.9626179 12.947098,11.4918126 12.9000585,11.5888317 C12.756,11.9739678 12.5149224,11.3977336 12.4208433,11.2036955 C11.9886677,10.8185594 11.2683749,11.156656 10.7891597,11.2036955 C10.1658859,11.2507351 9.58965171,12.0680469 9.97184787,12.6913206 C10.1159064,12.9794377 10.5010426,13.1234963 10.7891597,13.0264773 C11.1243163,12.9794377 11.1742958,12.5472621 11.5094525,12.4972826 C12.0386472,12.4972826 11.5094525,13.0264773 11.4624129,13.2175753 C11.4153734,13.4086734 11.559432,13.4086734 11.7034905,13.4586529 C11.8475491,13.5056924 12.0386472,13.4116134 12.1827057,13.4586529 C12.2797247,13.5056924 12.2297452,13.7938096 12.3738038,13.6997305 C12.1827057,13.8908286 12.1827057,14.2289252 12.4208433,14.4200233 C12.6619209,14.6111214 12.950038,14.4200233 13.1881756,14.5170423 C13.6673908,14.6140613 13.4292532,14.4700028 13.8614289,14.2289252 C14.149546,14.0378271 14.1965855,14.2759647 14.3906236,14.2759647 C14.5346821,14.2759647 14.5817217,14.0848666 14.8227992,14.1319062 C15.0138973,14.1789457 15.0638768,14.3230043 15.2549749,14.3230043 C15.3519939,14.3230043 15.446073,14.2759647 15.4960525,14.3230043 C15.8811886,14.3700438 16.1693057,14.6111214 16.5044624,14.8521989 C16.74554,15.043297 16.9366381,14.9962575 17.2247552,15.0932765 C17.4158532,15.1403161 17.8480289,15.4784127 17.8009894,15.7165503 C17.8009894,15.7635898 17.6098913,16.0046674 17.5599118,16.1016864 C17.6069513,16.1487259 17.9920875,16.0546469 18.0891065,16.0546469 C18.042067,16.1016864 17.8009894,16.2957245 17.8009894,16.1987054 C17.8009894,16.245745 17.9920875,16.342764 18.042067,16.3898035 C18.1861255,15.9576279 18.3772236,16.245745 18.6653407,16.342764 C18.9064183,16.3898035 19.1445559,16.4868226 19.432673,16.4868226 C19.6237711,16.5338621 20.1059263,16.6779206 20.2499848,16.8219792 C20.4410829,17.0130773 20.2970244,17.3511739 20.1529658,17.542272 C19.9618677,17.8303891 19.7207901,17.9274081 19.5767316,18.2155252 C19.4797126,18.4566028 19.5767316,18.6947404 19.5296921,18.9828575 C19.4826525,19.3679937 19.3856335,19.2239351 19.1945354,19.4620727 C19.0034373,19.6531708 19.1945354,19.6061313 18.9064183,19.7501898 C18.6183012,19.8942484 18.3772236,19.8472089 18.1861255,20.135326 L18.1861255,20.0882865 C18.139086,20.232345 18.0891065,20.3764036 18.042067,20.5204621 C17.9450479,20.7115602 17.8009894,20.8556188 17.6569308,20.9996773 C17.6098913,21.0467168 17.0806966,21.7670096 17.0336571,21.7199701 C16.9866175,21.6729306 16.5544419,21.8169891 16.5544419,21.6729306 C16.5544419,21.7699496 16.5544419,21.7199701 16.6514609,21.7699496 C16.5544419,22.3461838 16.3163043,22.4432028 15.6900905,22.4432028 C15.7371301,22.73132 15.4989925,22.6842804 15.3549339,22.828339 C15.3078944,22.9723975 15.2579149,23.1164561 15.2108754,23.3075542 C15.1138563,23.4516127 15.0197773,23.5956713 14.9697978,23.7397298 C14.9697978,23.7867694 15.0668168,23.8837884 15.1138563,23.9308279 C14.6816807,24.027847 14.2965445,24.0748865 13.8673088,24.121926 C13.9643278,24.024907 13.9643278,23.9308279 13.7232503,23.9308279 C13.7702898,23.7397298 13.9643278,23.6427108 14.0113674,23.4516127 C14.0584069,23.3545937 14.0113674,23.3545937 14.0584069,23.2605147 C14.1554259,22.9723975 14.1054464,23.0694166 14.0584069,22.8753785 C13.9143483,22.3461838 14.1054464,22.2021253 14.249505,21.7229101 C14.3935635,21.2436949 14.3935635,20.5704416 14.4905826,20.0441869 C14.5376221,19.8031093 14.5876016,19.2768546 14.5376221,18.9887375 C14.4406031,18.7006204 14.0084274,18.5095223 13.8173293,18.3154842 C13.5762517,18.0744066 13.3381141,17.7862895 13.1440761,17.4511329 C13.047057,17.3070743 12.9029985,17.1159763 12.8089194,16.9219382 C12.6178213,16.5368021 12.8089194,16.7778796 12.855959,16.5368021 C12.9029985,16.2957245 12.8089194,16.1046264 12.9029985,15.9135283 C13.0000175,15.6724507 13.2381551,15.4813526 13.3351742,15.2402751 C13.3822137,14.9991975 13.3351742,14.7110804 13.1440761,14.6640408 C13.0000175,14.6170013 12.855959,14.7110804 12.7589399,14.7110804 C12.5678418,14.6640408 12.3738038,14.5670218 12.2297452,14.4229633 C12.0386472,14.2789047 11.9416281,14.0378271 11.75053,13.8937686 C11.559432,13.7967495 11.4624129,13.846729 11.2713148,13.7967495 C11.0802168,13.74971 10.9361582,13.5086324 10.7920997,13.4116134 C10.5510221,13.3145944 10.4069635,13.4586529 10.1688259,13.4116134 C9.97772781,13.3645739 9.6396312,13.1234963 9.44853312,13.0764567 C9.06339698,12.8853587 8.77527987,12.6913206 8.63122131,12.2591449 C8.48716276,11.9239883 8.29606467,11.7299502 8.05498709,11.4418331 C7.81390951,11.153716 7.71983045,10.8655989 7.38173384,10.8185594 C7.33469431,10.8185594 7.47875287,11.153716 7.47875287,11.153716 C7.62281142,11.3947936 7.81390951,11.6329312 7.95796806,11.8740088 C8.19904565,12.2091654 8.10202662,12.2591449 7.86094904,11.9710278 C7.57283192,11.5858917 7.28471481,11.2036955 7.04363723,10.8185594 C6.9466182,10.6745008 6.9965977,10.5774818 6.85253915,10.4334232 C6.70848059,10.2893647 6.51738251,10.2423252 6.37332395,10.0982666 C5.84412925,9.61905141 5.7500502,8.99577766 5.79708973,8.32252441 C5.79708973,8.08144683 5.89410875,7.93738827 5.84412925,7.69925066 C5.79708973,7.50815257 5.7000707,7.36409402 5.60305167,7.26707499 C5.55601214,7.22003546 5.45899312,7.02599741 5.45899312,7.02599741 C5.36197409,6.83489932 5.21791553,6.64086127 5.07385698,6.44976318 C4.97683795,6.35274416 4.68872084,6.11460654 4.40060373,5.97054799 C5.6001117,4.4829229 7.13771629,3.33045445 8.91345848,2.56312215 C8.91345848,2.66014117 8.96049801,2.75422023 9.01047751,2.85123926 C9.15453607,3.09231684 9.29859462,3.04233734 9.58671173,3.09231684 C9.53967221,3.42747348 9.15453607,3.42747348 8.91345848,3.38043395 C8.57830184,3.33339443 8.29018473,3.2363754 8.00206762,3.52449251 C8.14612618,3.62151154 8.57830184,3.95666818 8.53126232,3.62151154 L9.39561365,3.62151154 C9.49263268,3.62151154 9.92480835,3.76557009 10.0188874,3.71853056 C10.0659269,3.67149104 10.1159064,3.47745298 10.162946,3.38337392 C10.0659269,3.38337392 9.97184787,3.3363344 9.92186837,3.3363344 C10.1129665,3.09525681 10.3070045,3.28929487 10.5451421,3.38337392 C10.257025,3.57447201 10.4481231,3.95960815 10.6892007,3.62445151 C10.9302783,3.3363344 10.6421612,3.14523631 10.354044,3.00117776 C10.6421612,2.66602112 10.7862197,2.61604162 11.0743368,3.00117776 C11.1213763,2.76010017 11.3154144,2.8571192 11.5065125,2.8571192 L11.5065125,2.81007967 C11.4094935,2.81007967 11.3154144,2.76304014 11.2183954,2.76304014 C11.4094935,2.4278835 11.3154144,2.33086448 11.6035315,2.23384545 C11.8446091,2.13682642 12.5149224,2.23384545 12.6119414,1.99276787 C12.1327262,2.08978689 11.556492,2.08978689 11.1243163,2.32792451 C10.9332182,2.42494353 10.7391802,2.71306064 10.5480821,2.51902259 C10.356984,2.32498453 10.6921407,1.98982789 10.8361992,1.89574884 L10.7891597,1.89574884 C12.0357072,1.60763173 13.3822137,1.5605922 14.6287612,1.75169028 C14.4376631,1.84870931 14.5817217,1.89574884 14.4376631,1.99276787 C14.149546,2.18386595 13.8143894,2.32792451 13.4762927,2.42494353 C13.8614289,2.42494353 14.7228402,2.76010017 14.8668988,2.23384545 L14.5317422,2.18680592 C14.7728197,2.04274736 15.0109574,1.89868881 15.2520349,1.85164928 C17.3629338,2.46022318 19.4267931,3.61269163 20.9643977,5.2914148 L20.9643977,5.2914148 Z" id="形状"></path>
                </g>
            </g>
        </g>
    </g>
</svg>