<?xml version="1.0" encoding="UTF-8"?>
<svg width="41px" height="41px" viewBox="0 0 41 41" version="1.1" xmlns="http://www.w3.org/2000/svg" xmlns:xlink="http://www.w3.org/1999/xlink">
    <title>编组 11</title>
    <g id="页面-1" stroke="none" stroke-width="1" fill="none" fill-rule="evenodd">
        <g id="趋势" transform="translate(-2168.000000, -40.000000)">
            <g id="编组-4备份-2" transform="translate(2165.000000, 40.000000)">
                <g id="编组-10" transform="translate(3.000000, 0.000000)">
                    <circle id="椭圆形" fill="#9A5AFC" cx="20.5" cy="20.5" r="20.5"></circle>
                    <path d="M29,16.1428571 L29,27.585081 L29,27.585081 L28.993652,27.7213471 C28.926457,28.4388539 28.3340993,29 27.613293,29 L27.613293,29 L12.386707,29 C11.6208503,29 11,28.3665187 11,27.585081 L11,27.585081 L11,22.262298 L18.20155,18.0175371 L20,21.1961393 L29,16.1428571 Z M28.9512049,11.0018207 L28.9781165,11.0163774 C29.0046051,11.0406 29.0074446,11.0828647 28.9844584,11.1107781 L28.9844584,11.1107781 L26.8372715,14.5487169 C26.8316996,14.5583109 26.8240472,14.5663749 26.8149429,14.5722466 C26.7831592,14.5927446 26.7416247,14.58221 26.722173,14.5487169 L26.722173,14.5487169 L26.3252815,13.8460741 L26.3252815,13.8460741 C26.302672,13.8092181 26.2632928,13.8006621 26.2339964,13.8209798 L26.2339964,13.8209798 L19.947239,17.6645988 C19.9153954,17.683766 19.8748544,17.6726214 19.8559539,17.6395044 L19.8559539,17.6395044 L18.0500976,14.3688655 C18.0333408,14.3459723 18.0050975,14.3360515 17.9786572,14.3437711 L17.9786572,14.3437711 L12.4221762,17.72314 C11.9682103,17.9985206 11.388427,17.8359687 11.124341,17.3592714 L11.124341,17.3592714 L11.0736895,17.2550328 C10.8980691,16.8305198 11.0440123,16.3247955 11.4299475,16.0794579 L11.4299475,16.0794579 L18.6295554,11.6963137 C18.661399,11.6771465 18.7019399,11.6882911 18.7208404,11.721408 L18.7208404,11.721408 L20.5108211,14.983678 C20.5297215,15.0167948 20.5702626,15.0279396 20.6021061,15.0087724 L20.6021061,15.0087724 L25.3330605,12.1438302 C25.3628173,12.1226327 25.3730124,12.0814492 25.356874,12.047635 L25.356874,12.047635 L24.9599825,11.3533571 C24.9553556,11.3442568 24.9526649,11.3342039 24.9520974,11.3238971 C24.9499389,11.2846951 24.9783463,11.2510718 25.0155473,11.2487971 L25.0155473,11.2487971 L28.9209558,11.0020357 C28.9410885,10.9966809 28.9624339,11.0020365 28.9781165,11.0163774 Z" id="形状结合" fill="#FFFFFF" fill-rule="nonzero"></path>
                </g>
            </g>
        </g>
    </g>
</svg>