<?xml version="1.0" encoding="UTF-8"?>
<svg width="41px" height="41px" viewBox="0 0 41 41" version="1.1" xmlns="http://www.w3.org/2000/svg" xmlns:xlink="http://www.w3.org/1999/xlink">
    <title>编组 11</title>
    <g id="页面-1" stroke="none" stroke-width="1" fill="none" fill-rule="evenodd">
        <g id="twitter" transform="translate(-2168.000000, -40.000000)">
            <g id="编组-4备份-2" transform="translate(2165.000000, 40.000000)">
                <g id="编组-11" transform="translate(3.000000, 0.000000)">
                    <circle id="椭圆形" fill="#48BAF7" cx="20.5" cy="20.5" r="20.5"></circle>
                    <path d="M29.6378524,15.7614315 C29.6378524,23.977367 24.2576274,29.8935824 16.3444441,30.1532282 C12.9979811,30.412874 10.7053766,29.3928369 8.65312576,27.8535081 C10.9457303,28.1131539 14.0333508,27.3527626 15.549428,25.7948877 C13.2568235,25.7948877 11.9626113,24.4966586 11.2045727,22.7347763 L13.2568235,22.7347763 C11.2045727,21.9558389 9.65151804,20.4165101 9.65151804,17.8571442 C10.1507142,18.11679 10.6683991,18.3578897 11.7037688,18.3578897 C9.91036049,17.3378526 8.89347946,13.9995492 10.1692029,11.9409288 C12.4618074,14.5002947 15.2720968,16.8185609 19.9127721,17.0596606 C18.6185598,11.9409288 25.2929971,9.34447065 28.1032865,12.7013201 C29.3974988,12.4416743 30.1555373,11.9409288 31.1539296,11.403091 C30.8950872,12.7013201 30.1370486,13.4617114 29.1016788,13.962457 C30.1185598,13.962457 30.8950872,13.7028111 31.6531258,13.2020656 C31.4127721,14.2221028 30.395891,15.260686 29.6378524,15.7614315 Z" id="路径" fill="#FFFFFF" fill-rule="nonzero"></path>
                </g>
            </g>
        </g>
    </g>
</svg>