<?xml version="1.0" encoding="utf-8"?>
<!-- Generator: Adobe Illustrator 23.0.2, SVG Export Plug-In . SVG Version: 6.00 Build 0)  -->
<svg version="1.1" id="图层_1" xmlns="http://www.w3.org/2000/svg" xmlns:xlink="http://www.w3.org/1999/xlink" x="0px" y="0px"
	 viewBox="0 0 200 160" style="enable-background:new 0 0 200 160;" xml:space="preserve">
<style type="text/css">
	.st0{fill:none;stroke:#595757;stroke-width:0.25;stroke-miterlimit:10;}
	.st1{fill:#F7F8FC;stroke:#595757;stroke-width:0.25;stroke-miterlimit:10;}
	.st2{fill:#FFFFFF;stroke:#595757;stroke-width:0.25;stroke-miterlimit:10;}
	.st3{opacity:0.6;fill:#4E84F0;}
	.st4{fill:none;stroke:#4E70F0;stroke-width:2;stroke-linecap:round;stroke-linejoin:round;stroke-miterlimit:10;}
	.st5{fill:#4E70F0;stroke:#FFFFFF;stroke-width:1.5;stroke-miterlimit:10;}
</style>
<polygon class="st0" points="120.4,17.6 79.6,17.6 46.6,41.5 34,80.3 46.6,119.1 79.6,143.1 120.4,143.1 153.4,119.1 166,80.3 
	153.4,41.5 "/>
<polygon class="st1" points="106.4,37.2 79.8,41.7 61,60.9 57,87.6 69.5,111.5 93.6,123.4 120.2,119 139,99.7 143,73.1 130.5,49.2 
	"/>
<polygon class="st2" points="107.6,56.9 92.4,56.9 80.1,65.9 75.4,80.3 80.1,94.8 92.4,103.8 107.6,103.8 119.9,94.8 124.6,80.3 
	119.9,65.9 "/>
<polyline class="st0" points="120.4,17.6 100,80.4 79.6,17.6 "/>
<polyline class="st0" points="46.6,119.1 100,80.4 79.6,143.1 "/>
<polyline class="st0" points="153.4,41.5 100,80.4 166,80.4 "/>
<polygon class="st3" points="86.2,35.6 60.7,51.8 60.4,80.3 57,111.7 89.8,111.7 114.2,124.2 126,99.2 154.9,80.4 119.9,65.9 
	114.9,34.6 "/>
<polyline class="st0" points="46.6,41.5 100,80.4 34,80.3 "/>
<polyline class="st0" points="120.4,143.1 100,80.4 153.4,119.1 "/>
<polygon class="st4" points="86.2,35.6 60.7,51.8 60.4,80.3 57,111.7 89.8,111.7 114.2,124.2 126,99.2 154.9,80.4 119.9,65.9 
	114.9,34.6 "/>
<circle class="st5" cx="154.9" cy="80.4" r="2.6"/>
<circle class="st5" cx="126" cy="99.2" r="2.6"/>
<circle class="st5" cx="114" cy="124.2" r="2.6"/>
<circle class="st5" cx="89.9" cy="111.7" r="2.6"/>
<circle class="st5" cx="57" cy="111.7" r="2.6"/>
<circle class="st5" cx="60.4" cy="80.4" r="2.6"/>
<circle class="st5" cx="60.4" cy="51.6" r="2.6"/>
<circle class="st5" cx="85.8" cy="35.8" r="2.6"/>
<circle class="st5" cx="119.9" cy="65.9" r="2.6"/>
<circle class="st5" cx="114.9" cy="34.6" r="2.6"/>
</svg>
