<?xml version="1.0" encoding="UTF-8"?>
<svg t="1592877109900" class="icon" viewBox="0 0 1024 1024" version="1.1" xmlns="http://www.w3.org/2000/svg" p-id="2143" width="24" height="24"><path d="M904 120H120c-30.9 0-56 25.1-56 56v560c0 30.9 25.1 56 56 56h280v56h-84c-15.5 0-28 12.5-28 28s12.5 28 28 28h392c15.5 0 28-12.5 28-28s-12.5-28-28-28h-84v-56h280c30.9 0 56-25.1 56-56V176c0-30.9-25.1-56-56-56zM568 848H456v-56h112v56z m336-112H120v-56h784v56zM120 624V176h784v448H120z" p-id="2144" fill="#0088cc"></path></svg>